<svg width="16" height="16" viewBox="0 0 16 16" fill="none" xmlns="http://www.w3.org/2000/svg">
<path d="M13.5379 9.13514H10.6055C10.2169 9.13513 9.84415 9.28903 9.56873 9.56317C9.29332 9.8373 9.13769 10.2094 9.13589 10.5979V13.5304C9.13589 13.9201 9.29073 14.294 9.56633 14.5696C9.84194 14.8452 10.2157 15 10.6055 15H13.5379C13.9264 14.998 14.2983 14.8423 14.5722 14.5669C14.8462 14.2915 15 13.9188 15 13.5304V10.5979C15 10.2102 14.846 9.83831 14.5718 9.56412C14.2976 9.28993 13.9257 9.13589 13.5379 9.13589M5.39449 9.13514H2.46205C2.07353 9.13734 1.70167 9.29322 1.42772 9.56873C1.15377 9.84424 0.999994 10.217 1 10.6055V13.5379C1 13.9257 1.15404 14.2976 1.42823 14.5718C1.70241 14.846 2.07429 15 2.46205 15H5.39449C5.78295 15 6.15561 14.8462 6.431 14.5722C6.70639 14.2983 6.86211 13.9264 6.86411 13.5379V10.6055C6.86411 10.2157 6.70927 9.84194 6.43367 9.56633C6.15806 9.29073 5.78425 9.13589 5.39449 9.13589M5.39449 1H2.46205C2.27005 1 2.07993 1.03782 1.90255 1.11129C1.72517 1.18477 1.56399 1.29246 1.42823 1.42823C1.29246 1.56399 1.18477 1.72517 1.11129 1.90255C1.03782 2.07993 1 2.27005 1 2.46205V5.39449C0.999995 5.78295 1.15379 6.15561 1.42776 6.431C1.70174 6.70639 2.0736 6.86211 2.46205 6.86411H5.39449C5.78425 6.86411 6.15806 6.70927 6.43367 6.43367C6.70927 6.15806 6.86411 5.78425 6.86411 5.39449V2.46205C6.86211 2.0736 6.70639 1.70174 6.431 1.42776C6.15561 1.15379 5.78295 0.999995 5.39449 1ZM13.5379 1H10.6055C10.2171 0.999995 9.84439 1.15379 9.569 1.42776C9.29361 1.70174 9.13789 2.0736 9.13589 2.46205V5.39449C9.13609 5.78419 9.29099 6.15788 9.56656 6.43344C9.84212 6.70901 10.2158 6.86391 10.6055 6.86411H13.5379C13.9264 6.86211 14.2983 6.70639 14.5722 6.431C14.8462 6.15561 15 5.78295 15 5.39449V2.46205C15 2.07429 14.846 1.70241 14.5718 1.42823C14.2976 1.15404 13.9257 1 13.5379 1Z" stroke="#FF6060" stroke-width="1.2" stroke-linecap="round" stroke-linejoin="round"/>
</svg>
